<?xml version="1.0" encoding="utf-8"?>
<!-- Generator: Adobe Illustrator 21.0.2, SVG Export Plug-In . SVG Version: 6.00 Build 0)  -->
<svg version="1.1" id="Camada_1" xmlns="http://www.w3.org/2000/svg" xmlns:xlink="http://www.w3.org/1999/xlink" x="0px" y="0px"
	 width="333.9px" height="146.7px" viewBox="0 0 333.9 146.7" style="enable-background:new 0 0 333.9 146.7;" xml:space="preserve"
	>
<style type="text/css">
	.st0{fill:#CAC9C7;}
	.st1{fill:#C9C8C6;}
	.st2{fill:#96BD0D;}
	.st3{fill:#F9D514;}
	.st4{fill:#FFFFFF;}
</style>
<title>logo sou apae</title>
<g>
	<g>
		<path d="M177.9,84.5l-16.6-47.1c-1-2.7-2-4.4-3.2-5.1c-1.2-0.7-3-1.1-5.6-1.1c-2.7,0-4.6,0.4-5.8,1.2c-1.1,0.8-2.2,2.5-3.1,5.2
			l-16.2,46.9c-0.2,0.5-0.4,1.1-0.5,1.6c-0.1,0.5-0.1,1.1-0.1,1.6c0,1.6,0.5,3,1.6,4c1.1,1,2.5,1.5,4.2,1.5c1.5,0,2.8-0.4,3.7-1.1
			c1-0.7,1.7-1.9,2.2-3.4l2.7-8.7h22.8l2.8,8.7c0.5,1.6,1.2,2.7,2.1,3.4c0.9,0.7,2.2,1.1,3.6,1.1c1.8,0,3.2-0.5,4.3-1.5
			c1.1-1,1.6-2.3,1.6-3.9c0-0.5,0-1.1-0.1-1.6C178.3,85.5,178.2,85,177.9,84.5z M144.5,69.8l8.1-25.7l8.2,25.7H144.5z"/>
		<path d="M222.1,65.8c3.1-3.4,4.7-8.2,4.7-14.4c0-6.4-1.6-11.2-4.8-14.5c-3.2-3.3-7.9-4.9-14-4.9h-18.8c-2.8,0-4.7,0.7-5.7,2
			c-1.1,1.3-1.6,3.8-1.6,7.5v45c0,2.2,0.5,3.8,1.5,4.9c1,1.1,2.5,1.7,4.5,1.7c2,0,3.6-0.5,4.6-1.6c1-1.1,1.5-2.7,1.5-5V70.9h14.8
			C214.6,70.9,219,69.2,222.1,65.8z M212.6,57.8c-1.4,1.4-3.7,2.1-6.9,2.1h-11.7V42.4h12.3c2.8,0,4.9,0.7,6.3,2.2
			c1.4,1.5,2.1,3.7,2.1,6.5C214.8,54.2,214.1,56.5,212.6,57.8z"/>
		<path d="M271.4,84.5l-16.6-47.1c-1-2.7-2-4.4-3.2-5.1c-1.2-0.7-3-1.1-5.6-1.1c-2.7,0-4.6,0.4-5.8,1.2c-1.1,0.8-2.2,2.5-3.1,5.2
			l-16.2,46.9c-0.2,0.5-0.4,1.1-0.5,1.6c-0.1,0.5-0.1,1.1-0.1,1.6c0,1.6,0.5,3,1.6,4c1.1,1,2.5,1.5,4.2,1.5c1.5,0,2.8-0.4,3.7-1.1
			c1-0.7,1.7-1.9,2.2-3.4l2.7-8.7h22.8l2.8,8.7c0.5,1.6,1.2,2.7,2.1,3.4c0.9,0.7,2.2,1.1,3.6,1.1c1.8,0,3.2-0.5,4.3-1.5
			c1.1-1,1.6-2.3,1.6-3.9c0-0.5,0-1.1-0.1-1.6C271.7,85.5,271.6,85,271.4,84.5z M237.9,69.8L246,44l8.2,25.7H237.9z"/>
		<path d="M317.4,82.7c-1.1-0.9-2.7-1.4-4.9-1.4H286V65.7h22.4c2.1,0,3.7-0.4,4.8-1.3c1.1-0.9,1.7-2.1,1.7-3.8
			c0-1.8-0.5-3.1-1.6-3.9c-1.1-0.9-2.7-1.3-4.8-1.3H286V42.4h24.9c2.2,0,3.8-0.4,4.9-1.3c1.1-0.9,1.7-2.2,1.7-3.9
			c0-1.8-0.6-3.1-1.7-4c-1.1-0.9-2.7-1.4-4.9-1.4h-29.5c-2.8,0-4.7,0.7-5.7,2c-1.1,1.3-1.6,3.8-1.6,7.5v41.4c0,3.7,0.5,6.2,1.6,7.5
			c1.1,1.3,3,2,5.7,2h31c2.2,0,3.8-0.5,4.9-1.4c1.1-0.9,1.7-2.3,1.7-4.1C319,85,318.5,83.6,317.4,82.7z"/>
	</g>
	<path class="st0" d="M90.9,88.9c-1.9-10-3.6-19.2,0.1-28.8c1.6-4.3,1-9.4,1.4-14.2c0.2-2.4-0.2-5.5,2.9-5.6c3-0.1,3.2,3,3.4,5.3
		c0.3,3.4,0.4,6.9,0.5,10c2.9-4.2,3.4-9.8,1.1-14.5c-1.1-2.1-2.2-4.2-3.2-6.4c-1.1-2.1-2.1-4.3-3.8-6.1c1.9,4.2,3.7,8.3,5.6,12.5
		c-0.2,0.1-0.3,0.2-0.5,0.2c-2-3.6-4.1-7.2-5.9-10.9c-1.5-3,1.5-4.1,2.8-5.7c1.2-1.4,3.2-0.7,4.2,1c3.6,6,7.1,12.1,10.7,18.2
		c0.2,0.3,0.4,0.8,0.3,1.1c-0.4,6,0.3,12.2-2.9,17.8c-0.8,1.4-1.4,2.9-2.2,4.2c-2.5,4.2-3.8,8.7-3,13.7c0.3,2-0.4,3.1-2.3,3.8
		C97.1,85.7,94.2,87.3,90.9,88.9z"/>
	<path class="st1" d="M33.1,52.3c0.2-0.1,0.3-0.2,0.5-0.3c1.1-1.1,2.2-2.1,3.3-3.2c1.1,1.3,2.5,2.4,3.1,3.9
		c2.8,7.1,5.4,14.3,8.2,21.4c2.1,5.4,2.1,11.8-0.4,17.7c-3.4-1.9-6.8-3.8-10.1-5.8c-0.3-0.2-0.7-0.6-0.7-0.9
		c-0.2-5.3-4.2-8.3-7.1-11.8c-3.8-4.6-4.9-10.3-6.7-15.7c-0.3-0.8-0.1-1.8,0.2-2.7c1.6-6,3.4-12.1,5-18.1c0.5-1.9,1.6-3.3,3.7-2.9
		c2.3,0.4,2.5,2.3,2.1,4.2c-0.8,4.5-1.6,9-2.7,13.5c-0.7,3-0.7,5.6,1.3,8.1c1,1.3,1.8,2.8,2.7,4.2c0.2-0.1,0.4-0.2,0.7-0.3
		C35.1,59.8,34.1,56.1,33.1,52.3L33.1,52.3z"/>
	<path class="st2" d="M52.1,107.5c3,0.5,5.9,1.2,9,1.5c6.6,0.7,13.2,0.5,19.7-1.5l-0.1,0.1c3.7-1.2,7.5-2.4,11.2-3.6l-0.1,0.1
		c3.7-2.6,7.4-5.2,11.1-7.8c0.2-0.4,0.4-0.8,0.6-1.3c0.5-0.9,1.5-1.9,1.5-2.8c-0.2-4.4,1.2-7.4,5-9.7c2.2,4.7,1,8.3-3.4,11.1
		c-0.9,0.6-1.4,1.8-2.1,2.7l0.1-0.1c-3.7,3-7.4,6-11.2,9l0.1-0.1c-7.5,3.7-15.4,5.4-23.6,6c-1.9,0.1-2.2,1.2-2.2,2.8
		c0,4.7,0.1,9.4,0,14.1c0,0.9-0.9,1.8-1.3,2.8c-0.5-0.9-1.3-1.9-1.4-2.8c-0.1-4.4,0-8.8,0.2-13.2c0.1-2.4-0.7-3.7-3.2-3.8
		c-7.9-0.3-15.5-2.5-22.7-5.7l0.1,0.1c-3.5-2.9-7.1-5.7-10.6-8.6c-0.1-0.1-0.2-0.3-0.3-0.4c-0.7-0.9-1.2-2.1-2.1-2.7
		c-4.4-2.8-5.4-5.8-3.4-11c3.5,1.7,5.5,5.2,5.3,9c0,1.1,0.8,2.3,1.2,3.5c0,0-0.1-0.1-0.1-0.1c2,1.8,4,3.7,5.9,5.5l-0.1-0.1
		c2,1.2,4,2.5,5.9,3.7L41,104c1.6,0.6,3.2,1.2,4.8,1.9l-0.1-0.1c2.2,0.6,4.3,1.2,6.5,1.8L52.1,107.5z"/>
	<path class="st3" d="M75.6,41.5c-0.1,5.2-4.1,9.1-9.2,9.1c-5-0.1-9-4.3-9-9.4c0-4.9,4.2-9,9.1-8.9C71.8,32.5,75.6,36.3,75.6,41.5z"
		/>
	<path class="st3" d="M80.5,62.7c-1.7-0.9-2.9-1.2-3.6-2.1c-1.7-2.1-3.4-4.4-4.6-6.8c-1.4-2.9,1.9-7.1,4.9-6
		c2.9,1.1,5.7,2.9,7.9,5.1c0.9,0.9,0.8,3.9,0,5.4C84.1,60.1,82.1,61.3,80.5,62.7z"/>
	<path class="st3" d="M53.9,62c-3.1-0.1-5.9-2.4-6.7-5.1c-0.8-2.7,0.4-4.6,2.6-6c1.4-0.9,2.8-1.8,4.2-2.6c2.1-1.3,4.1-0.9,5.7,0.9
		c1.6,1.8,1.8,3.7,0.5,5.7c-1.1,1.7-2.2,3.5-3.5,5.1C55.8,61,54.5,61.6,53.9,62z"/>
	<path class="st3" d="M56.3,43.1c0,0.5,0,1-0.1,1.5c-0.6,2-7.7,4.2-10.5,3.1c-2.4-0.9-3.5-4.1-2.4-7.1c0.9-2.4,2.4-3.6,4.9-3.2
		c1.9,0.4,3.9,0.6,5.6,1.5c1.3,0.7,2.1,2.4,3.1,3.7C56.7,42.8,56.5,42.9,56.3,43.1z"/>
	<path class="st3" d="M84.4,47.7c-1.1-0.2-2.9-0.4-4.7-0.9c-2-0.5-3.3-1.9-2.9-3.8c0.3-1.5,1.4-3.2,2.6-4.1c1.4-0.9,3.3-1.1,5-1.4
		c3.2-0.5,5.6,1.6,5.6,4.8C90.2,46,88.5,47.9,84.4,47.7z"/>
	<path class="st3" d="M61,20c3.1,0.1,5.1,3.5,5,8.6c-0.1,1.9-2.3,4-4.1,3.9c-2.1-0.1-6.2-5.5-6.2-8.1C55.7,22.1,58.3,20,61,20z"/>
	<path class="st3" d="M72.2,19c2,1.6,3.8,2.4,4.6,3.9c0.6,1.1,0.1,3-0.4,4.4c-0.5,1.3-1.4,2.7-2.5,3.6c-1.1,0.8-2.7,1.4-4,1.2
		c-1.8-0.3-2.9-1.9-2.6-4c0.3-1.7,0.3-3.5,1-4.9C69.1,21.6,70.6,20.6,72.2,19z"/>
	<path class="st3" d="M58.8,33.8c-0.1,2.6-2.1,4.3-4.5,3.6c-1.8-0.5-3.8-0.9-5.1-2c-1.1-1-2-3-1.9-4.5c0.3-2.4,1.9-4.2,4.5-4.3
		C54.1,26.5,58.8,31.5,58.8,33.8z"/>
	<path class="st3" d="M86.7,31.6c-0.9,1.5-1.3,2.9-2.1,3.4c-1.9,1.1-4,2-6.2,2.5c-1,0.2-2.8-0.6-3.3-1.6c-0.6-1.1-0.5-2.9,0-4.1
		c0.6-1.4,2-2.4,3.1-3.5c1.3-1.3,3-2.3,4.7-1C84.3,28.3,85.4,30,86.7,31.6z"/>
	<path class="st2" d="M103.5,95c-0.2,0.4-0.4,0.8-0.6,1.3c-1.1-0.3-2.2-0.5-2.9-0.7c-0.8,1.5-1.8,3.1-2.7,4.8c-1-1-2.1-2-3.1-3
		l0.1,0.1c0.2-2.8,0.4-5.7,0.6-8.5c0.4,0,0.7-0.1,1.1-0.1c1,1.5,2.1,2.9,2.9,4c0.5-2.1,1.1-4.5,1.8-7.1
		C103.8,88,104.6,90.8,103.5,95z"/>
	<path class="st2" d="M81.7,69.5c-0.8,7.4-6.1,12.8-11.8,12.3C69.2,77.1,74.5,71.4,81.7,69.5z"/>
	<path class="st2" d="M51.3,69.6c6.9,1.7,12.1,6.9,12,12C58.2,82.7,52.9,77.5,51.3,69.6z"/>
	<path class="st2" d="M79.9,123.2c-2.9-1.3-5.7-3-6.7-6.3c-0.5-1.6,0.4-3.7,0.6-5.5c1.4,0.8,3.6,1.1,4.2,2.4
		c1.4,2.8,2.1,5.9,3.1,8.9C80.6,122.8,80.3,123,79.9,123.2z"/>
	<path class="st2" d="M52.8,123.2c-0.2-4.3,0.4-8.1,3.5-10.9c0.7-0.6,2.1-1.2,2.8-0.9c0.7,0.3,1.1,1.7,1.2,2.7
		C60.7,117.9,57.9,121.3,52.8,123.2z"/>
	<path class="st2" d="M35.4,116c1.7-4.8,5.1-7.8,8.4-7.9c2,0,2.6,0.8,2.1,2.7c-0.8,3.2-3.2,4.3-5.9,4.9
		C38.6,116,37.2,115.9,35.4,116z"/>
	<path class="st2" d="M39.3,105.2c0.6,3.2-1.2,6-4.6,6.6c-2,0.4-4.1,0.1-6.3,0.1c1.5-4.8,5.9-7.3,11-6.5
		C39.4,105.3,39.3,105.2,39.3,105.2z"/>
	<path class="st2" d="M20.8,104.7c3.3-2.8,6.3-4.5,9.9-3.7c1,0.2,1.9,1.3,2.9,2c-0.7,1-1.2,2.3-2.2,2.9
		C27.9,108.2,24.8,106.3,20.8,104.7z"/>
	<path class="st2" d="M43.1,118.9c1.4-2.4,2.5-5.1,4.3-7.2c0.9-1.1,3-1,4.6-1.5c-0.1,1.7,0.4,3.6-0.3,5c-1.6,3.2-4.7,4-7.8,4.6
		C43.6,119.5,43.4,119.2,43.1,118.9z"/>
	<path class="st2" d="M89.4,119.5c-6.1-0.2-9.8-4.4-8.5-9.3C85.4,109.7,88.7,113.2,89.4,119.5z"/>
	<path class="st2" d="M98,115.8c-4,0.3-7.3,0.2-9.6-2.7c-0.8-1.1-0.8-2.9-1.2-4.3c1.4-0.1,3.1-0.7,4.3-0.2
		C94.6,109.8,96.3,112.5,98,115.8z"/>
	<path class="st2" d="M112.2,104.6c-3.9,1.9-7.1,3.7-10.6,1.3c-0.9-0.6-1.4-2-2.1-3c1-0.6,1.9-1.6,3-1.9
		C106.1,100.2,109,102,112.2,104.6z"/>
	<path class="st2" d="M93.5,105.2c5.3-0.6,9.5,1.7,11,6.1c-6,2.3-11.1-0.6-10.9-6.2C93.6,105.1,93.5,105.2,93.5,105.2z"/>
	<path class="st2" d="M28.5,96.3c0.1,0.1,0.2,0.2,0.3,0.4c-0.9,2.7-2.8,4.1-5.4,3.4c-2.2-0.6-4.2-2-6.6-3.2
		C20.5,93.8,24.3,93.7,28.5,96.3z"/>
	<path class="st2" d="M104.6,96.3c3.6-2.6,7.3-2.5,11.1-0.3c-2,3.6-6.9,5.3-9.6,3.3c-0.8-0.6-1-2-1.4-3.1
		C104.7,96.2,104.6,96.3,104.6,96.3z"/>
	<path class="st2" d="M66.4,96.8c2.8,3.2,3.6,7.2,2,9.9c-1.3,2.2-2.5,2.2-3.9,0C62.8,104,63.4,100.4,66.4,96.8z"/>
	<path class="st2" d="M88.9,100.9c-0.1,0.4-0.2,0.8-0.4,1.1c-0.8,1.3-1.7,2.5-2.5,3.8c-0.9-1.3-2.4-2.6-2.5-4
		c-0.3-2.4,0.3-4.9,0.6-7.4c0.5-0.1,0.9-0.2,1.4-0.3c1.2,2.3,2.4,4.6,3.5,6.9C89,101,88.9,100.9,88.9,100.9z"/>
	<path class="st2" d="M44.6,99.2c1.1-1.7,2.2-3.3,3.6-5.5c1.7,3.8,2.6,7.1,0.7,10.3c-0.5,0.9-2.1,1.2-3.2,1.7c0,0,0.1,0.1,0.1,0.1
		C45.4,103.6,45,101.4,44.6,99.2L44.6,99.2z"/>
	<path class="st2" d="M80.8,107.6c-1.1-1.2-2.7-2.2-3.2-3.6c-0.9-2.8-0.3-5.6,1.4-8.1C83.1,99.6,83.7,103.8,80.8,107.6
		C80.7,107.6,80.8,107.6,80.8,107.6z"/>
	<path class="st2" d="M52.2,107.6c-2.8-4.4-2.2-8.2,2.1-11.7c1.6,3.2,2.3,6.4,0.6,9.6c-0.5,0.9-1.8,1.3-2.8,2
		C52.1,107.5,52.2,107.6,52.2,107.6z"/>
	<path class="st2" d="M91.9,104c-1-1-2-2.1-3-3.1c0,0,0.1,0.1,0.1,0.1c0.2-3,0.4-5.9,0.6-8.9c0.4-0.1,0.8-0.2,1.2-0.2
		c1.1,1.9,2.3,3.7,3.4,5.6c0,0-0.1-0.1-0.1-0.1C94.4,100,93.8,102.3,91.9,104L91.9,104z"/>
	<path class="st2" d="M38.7,98c1.2-2,2.4-4.1,3.5-6.1c0.3,0.1,0.6,0.1,0.9,0.2c0.5,2.4,0.9,4.8,1.4,7.1l0.1-0.1
		c-1.2,1.6-2.4,3.2-3.6,4.9l0.1,0.1c-0.8-2-1.6-4.1-2.4-6.1L38.7,98z"/>
	<path class="st2" d="M60,96.5c2,2.6,2.7,5.3,2.1,8.1c-0.3,1.3-1.6,2.3-2.4,3.4c-0.9-1.1-2.3-2.1-2.5-3.3C56.4,101.5,58,99,60,96.5z
		"/>
	<path class="st2" d="M34.1,93.3c1-1.5,2-3,3.2-4.9c2,3.4,1.7,6.5,1.4,9.6c0,0,0.1-0.1,0.1-0.1c-1.2,0.8-2.4,1.6-3.6,2.4l0.1,0.1
		c-0.6-1.9-1.2-3.8-1.8-5.7C33.7,94.3,33.9,93.8,34.1,93.3z"/>
	<path class="st2" d="M72.3,96.9c2.9,2.8,4.2,6.7,2.9,9.1c-0.5,0.9-1.5,1.6-2.3,2.4c-0.7-0.8-1.7-1.5-2-2.4
		C69.6,102.8,70.8,100,72.3,96.9z"/>
	<path class="st2" d="M34.1,93.3c-0.2,0.5-0.3,1-0.5,1.4c-1.3,2.1-2.7,1.9-4.2,0.2c0,0,0.1,0.1,0.1,0.1c-1.2-3.7,0-6.7,3.1-9.5
		C33.1,88.2,33.6,90.7,34.1,93.3z"/>
	<path class="st1" d="M33.1,52.3c0.4-3.4,0.7-6.9,1.1-10.3c0.2-1.9,0.5-3.9,1.5-6c0.2,1.2,0.7,2.5,0.5,3.6
		C35.3,43.9,34.1,48.1,33.1,52.3C33.1,52.3,33.1,52.3,33.1,52.3z"/>
	<path class="st1" d="M35.9,48.1c0.5-4,1-7.3,1.4-10.6C39.2,39,39,41.6,35.9,48.1z"/>
	<path class="st0" d="M94.8,38.2c-1.7-2.8-5.3-4.8-4.1-9.5C92.2,32.2,93.5,35.2,94.8,38.2z"/>
	<g>
		<path class="st3" d="M72.1,61.2c-0.3-1.8-0.5-3.6-0.8-5.3c-0.5-2.4-1.6-4.2-4.4-4.2c-2.9-0.1-4.6,1.2-5.3,4
			c-0.4,1.6-0.9,3.3-1.2,4.9c-0.7,3.6,0,5.3,3.1,6.8c0.6,0.3,1,0.6,1.4,1h3.7c0.2-0.2,0.3-0.4,0.5-0.5
			C71.9,66.5,72.5,64.2,72.1,61.2z"/>
		<path class="st2" d="M68.4,68.6h-3.6c0.4,0.5,0.5,1.2,0.5,2c-0.1,6.8-0.1,13.6-0.1,20.4c0,1.4,0.4,2.7,0.6,4.1c0.5,0,1,0,1.5,0
			c0.2-1.4,0.5-2.7,0.5-4.1c0-6.8-0.1-13.6,0-20.4C67.9,69.9,68.1,69.1,68.4,68.6z"/>
	</g>
	<path class="st4" d="M67.9,34c-1.3,0-2.6,0.4-3.6,1.2c0.9-0.6,2-0.9,3.1-0.9c3.5,0,6.3,2.9,6.3,6.5c0,2.2-1.1,4.2-2.7,5.3
		c1.9-1.1,3.1-3.2,3.1-5.6C74.2,36.9,71.4,34,67.9,34z"/>
	<g>
		<path d="M141.4,110.3c0.3,0,0.6,0.1,0.8,0.2c0.2,0.1,0.3,0.4,0.3,0.6c0,0.3-0.1,0.5-0.3,0.6s-0.4,0.2-0.8,0.2h-4.9
			c-0.4,0-0.7-0.1-0.9-0.3c-0.2-0.2-0.3-0.6-0.3-1.1v-6.4c0-0.6,0.1-1,0.3-1.2c0.2-0.2,0.5-0.3,0.9-0.3h4.7c0.3,0,0.6,0.1,0.8,0.2
			c0.2,0.1,0.3,0.3,0.3,0.6c0,0.3-0.1,0.5-0.3,0.6c-0.2,0.1-0.4,0.2-0.8,0.2h-3.9v2h3.5c0.3,0,0.6,0.1,0.8,0.2
			c0.2,0.1,0.3,0.3,0.3,0.6c0,0.3-0.1,0.4-0.3,0.6c-0.2,0.1-0.4,0.2-0.8,0.2h-3.5v2.4H141.4z"/>
		<path d="M145.7,109.3c-0.9-0.2-1.5-0.5-1.8-0.8c-0.4-0.3-0.5-0.7-0.5-1.3c0-0.7,0.3-1.3,0.8-1.7c0.5-0.4,1.2-0.6,2.1-0.6
			c0.8,0,1.4,0.1,1.9,0.4c0.5,0.3,0.8,0.6,0.8,1c0,0.2-0.1,0.4-0.2,0.5c-0.1,0.1-0.3,0.2-0.5,0.2c-0.2,0-0.5-0.1-0.9-0.4
			c-0.1-0.1-0.1-0.1-0.1-0.1c-0.1-0.1-0.2-0.1-0.4-0.2c-0.2-0.1-0.3-0.1-0.5-0.1c-0.3,0-0.6,0.1-0.8,0.2c-0.2,0.1-0.3,0.3-0.3,0.5
			c0,0.2,0.1,0.3,0.2,0.4c0.2,0.1,0.5,0.2,1.1,0.3l0.6,0.1c0.9,0.2,1.5,0.4,1.8,0.8c0.4,0.3,0.5,0.7,0.5,1.3c0,0.8-0.3,1.4-0.8,1.8
			c-0.5,0.4-1.3,0.6-2.4,0.6c-0.8,0-1.5-0.2-2-0.5c-0.5-0.3-0.8-0.7-0.8-1.2c0-0.2,0.1-0.4,0.2-0.6c0.2-0.2,0.4-0.2,0.6-0.2
			c0.3,0,0.5,0.2,0.8,0.5c0.1,0.1,0.1,0.2,0.2,0.2c0.1,0.1,0.3,0.3,0.5,0.3c0.2,0.1,0.4,0.1,0.7,0.1c0.4,0,0.6-0.1,0.8-0.2
			c0.2-0.1,0.3-0.3,0.3-0.5c0-0.3-0.4-0.5-1.1-0.7c0,0,0,0,0,0L145.7,109.3z"/>
		<path d="M152.4,111.1v2.6c0,0.3-0.1,0.6-0.2,0.8c-0.1,0.2-0.4,0.3-0.7,0.3c-0.3,0-0.5-0.1-0.7-0.3c-0.2-0.2-0.2-0.4-0.2-0.8v-7.7
			c0-0.3,0.1-0.6,0.2-0.8c0.1-0.2,0.4-0.3,0.7-0.3c0.3,0,0.5,0.1,0.6,0.2c0.1,0.1,0.2,0.3,0.2,0.6l0,0.2c0.2-0.4,0.5-0.7,0.8-0.9
			c0.3-0.2,0.7-0.3,1.2-0.3c0.8,0,1.5,0.3,2.1,1c0.5,0.7,0.8,1.5,0.8,2.6c0,1.1-0.3,2-0.8,2.7c-0.5,0.7-1.2,1-2,1
			c-0.4,0-0.8-0.1-1.2-0.3C152.9,111.8,152.6,111.5,152.4,111.1z M153.9,106.5c-0.5,0-0.8,0.2-1.1,0.5c-0.3,0.4-0.4,0.9-0.4,1.5
			c0,0.7,0.1,1.2,0.4,1.6c0.3,0.4,0.6,0.5,1.1,0.5c0.5,0,0.8-0.2,1.1-0.5c0.3-0.4,0.4-0.9,0.4-1.5c0-0.7-0.1-1.2-0.4-1.6
			C154.8,106.7,154.4,106.5,153.9,106.5z"/>
		<path d="M160.4,111.1c0,0.3-0.1,0.6-0.2,0.8c-0.2,0.2-0.4,0.3-0.7,0.3c-0.3,0-0.5-0.1-0.7-0.3s-0.2-0.4-0.2-0.8v-5
			c0-0.3,0.1-0.6,0.2-0.8c0.2-0.2,0.4-0.3,0.7-0.3c0.3,0,0.5,0.1,0.7,0.3c0.2,0.2,0.2,0.4,0.2,0.8V111.1z M160.6,103l-1,1.2
			c-0.1,0.1-0.1,0.1-0.2,0.2c-0.1,0-0.1,0-0.2,0c-0.1,0-0.3,0-0.4-0.1c-0.1-0.1-0.2-0.2-0.2-0.3c0-0.1,0-0.1,0-0.2
			c0-0.1,0.1-0.1,0.1-0.2l0.8-1.4c0.1-0.1,0.1-0.2,0.2-0.2s0.2-0.1,0.3-0.1c0.2,0,0.4,0.1,0.5,0.2c0.1,0.1,0.2,0.3,0.2,0.5
			c0,0.1,0,0.2-0.1,0.3C160.7,102.8,160.6,102.9,160.6,103z"/>
		<path d="M163.7,106.4c0.2-0.4,0.4-0.8,0.7-1c0.3-0.3,0.6-0.4,0.9-0.4c0.3,0,0.5,0.1,0.7,0.3c0.2,0.2,0.3,0.4,0.3,0.7
			c0,0.1,0,0.3-0.1,0.4c0,0.1-0.1,0.2-0.2,0.3c-0.1,0.1-0.3,0.2-0.6,0.2c-0.2,0-0.3,0-0.4,0c-0.4,0.1-0.6,0.2-0.8,0.5
			c-0.2,0.3-0.3,0.6-0.3,1v2.7c0,0.3-0.1,0.6-0.2,0.8c-0.2,0.2-0.4,0.3-0.7,0.3c-0.3,0-0.5-0.1-0.7-0.3s-0.2-0.4-0.2-0.8v-5
			c0-0.3,0.1-0.6,0.2-0.8c0.1-0.2,0.4-0.3,0.7-0.3c0.3,0,0.5,0.1,0.6,0.2c0.1,0.1,0.2,0.3,0.2,0.6v0V106.4z"/>
		<path d="M166.9,103.6c0-0.3,0.1-0.5,0.3-0.7c0.2-0.2,0.4-0.3,0.7-0.3c0.3,0,0.5,0.1,0.7,0.3c0.2,0.2,0.3,0.4,0.3,0.7
			c0,0.3-0.1,0.5-0.3,0.7c-0.2,0.2-0.4,0.3-0.7,0.3c-0.3,0-0.5-0.1-0.7-0.3C167,104.1,166.9,103.8,166.9,103.6z M168.8,111.1
			c0,0.3-0.1,0.6-0.2,0.8s-0.4,0.3-0.7,0.3c-0.3,0-0.5-0.1-0.7-0.3c-0.2-0.2-0.2-0.4-0.2-0.8v-5c0-0.3,0.1-0.6,0.2-0.8
			c0.2-0.2,0.4-0.3,0.7-0.3c0.3,0,0.5,0.1,0.7,0.3c0.2,0.2,0.2,0.4,0.2,0.8V111.1z"/>
		<path d="M170.8,106.4h-0.3c-0.2,0-0.4-0.1-0.5-0.2c-0.1-0.1-0.2-0.3-0.2-0.5c0-0.2,0.1-0.4,0.2-0.5c0.1-0.1,0.3-0.2,0.5-0.2h0.3
			v-0.9c0-0.3,0.1-0.6,0.2-0.8c0.1-0.2,0.4-0.3,0.7-0.3c0.3,0,0.5,0.1,0.7,0.3c0.2,0.2,0.2,0.4,0.2,0.8v0.9h0.5
			c0.2,0,0.4,0.1,0.5,0.2c0.1,0.1,0.2,0.3,0.2,0.5c0,0.2-0.1,0.4-0.2,0.5c-0.1,0.1-0.3,0.2-0.5,0.2h-0.5v3.8c0,0.2,0,0.3,0.1,0.3
			c0.1,0.1,0.2,0.1,0.3,0.1c0,0,0.1,0,0.1,0c0.1,0,0.1,0,0.2,0c0.2,0,0.4,0.1,0.5,0.2c0.1,0.1,0.2,0.3,0.2,0.5
			c0,0.3-0.1,0.5-0.3,0.6c-0.2,0.1-0.5,0.2-1,0.2c-0.7,0-1.2-0.1-1.5-0.4c-0.3-0.3-0.4-0.8-0.4-1.6V106.4z"/>
		<path d="M178,104.9c1.1,0,1.9,0.3,2.5,1c0.6,0.7,0.9,1.5,0.9,2.7c0,1.1-0.3,2-0.9,2.7c-0.6,0.6-1.5,1-2.5,1c-1.1,0-1.9-0.3-2.5-1
			c-0.6-0.7-0.9-1.5-0.9-2.7c0-1.1,0.3-2,0.9-2.7C176,105.2,176.9,104.9,178,104.9z M178,106.5c-0.5,0-0.9,0.2-1.2,0.5
			c-0.3,0.4-0.4,0.9-0.4,1.6c0,0.7,0.1,1.2,0.4,1.6c0.3,0.4,0.7,0.6,1.2,0.6c0.5,0,0.9-0.2,1.2-0.6c0.3-0.4,0.4-0.9,0.4-1.6
			c0-0.7-0.1-1.2-0.4-1.6C178.9,106.6,178.5,106.5,178,106.5z"/>
		<path d="M193.1,104.6c0,0.3-0.1,0.5-0.2,0.6c-0.2,0.2-0.4,0.2-0.6,0.2c-0.3,0-0.7-0.2-1-0.6c-0.1-0.1-0.1-0.2-0.2-0.2
			c-0.2-0.2-0.4-0.3-0.6-0.4c-0.2-0.1-0.5-0.1-0.9-0.1c-0.5,0-0.9,0.1-1.2,0.3c-0.3,0.2-0.4,0.5-0.4,0.8c0,0.5,0.5,0.9,1.6,1.1
			c0.3,0.1,0.5,0.1,0.6,0.1c0.7,0.2,1.1,0.3,1.5,0.4c0.3,0.1,0.6,0.2,0.8,0.3c0.4,0.2,0.7,0.5,0.9,0.9c0.2,0.3,0.3,0.8,0.3,1.3
			c0,0.9-0.3,1.6-1,2.2c-0.6,0.5-1.5,0.8-2.7,0.8c-0.6,0-1.1-0.1-1.6-0.2c-0.4-0.1-0.9-0.3-1.3-0.6c-0.3-0.2-0.5-0.4-0.7-0.7
			c-0.2-0.3-0.2-0.6-0.2-0.8c0-0.3,0.1-0.5,0.2-0.7c0.2-0.2,0.4-0.3,0.6-0.3c0.3,0,0.6,0.2,0.9,0.7c0.1,0.2,0.2,0.3,0.3,0.4
			c0.2,0.2,0.4,0.4,0.7,0.5c0.3,0.1,0.6,0.2,1,0.2c0.6,0,1-0.1,1.3-0.3c0.3-0.2,0.5-0.5,0.5-0.9c0-0.6-0.8-1-2.3-1.4
			c-0.1,0-0.1,0-0.1,0c-1.2-0.3-2-0.6-2.4-1c-0.4-0.4-0.6-1-0.6-1.8c0-0.9,0.3-1.6,0.9-2c0.6-0.5,1.5-0.7,2.6-0.7
			c0.5,0,1,0.1,1.4,0.2c0.4,0.1,0.8,0.3,1.1,0.5c0.3,0.2,0.5,0.4,0.6,0.7C193,104.1,193.1,104.4,193.1,104.6z"/>
		<path d="M200.6,106.8v3.9c0,0.1,0,0.3,0,0.5c0,0.2,0,0.3,0,0.3c0,0.2-0.1,0.4-0.2,0.5c-0.1,0.1-0.3,0.2-0.6,0.2
			c-0.3,0-0.6-0.1-0.8-0.3c-0.2-0.2-0.2-0.5-0.2-0.8c-0.2,0.4-0.5,0.6-0.9,0.8c-0.4,0.2-0.8,0.3-1.3,0.3c-0.7,0-1.2-0.2-1.5-0.6
			c-0.4-0.4-0.5-0.9-0.5-1.6c0-0.6,0.2-1.1,0.5-1.4c0.3-0.3,0.8-0.6,1.6-0.7c0.3-0.1,0.6-0.1,1.1-0.2c0.4-0.1,0.7-0.1,0.8-0.1
			c0.1,0,0.2-0.1,0.2-0.2c0-0.1,0.1-0.2,0.1-0.3c0-0.3-0.1-0.5-0.3-0.6c-0.2-0.1-0.5-0.2-0.9-0.2c-0.2,0-0.4,0-0.6,0.1
			c-0.2,0.1-0.3,0.1-0.5,0.3c0,0-0.1,0.1-0.2,0.2c-0.3,0.3-0.6,0.5-0.8,0.5c-0.2,0-0.4-0.1-0.5-0.2s-0.2-0.3-0.2-0.5
			c0-0.5,0.3-0.9,0.8-1.2c0.5-0.3,1.2-0.5,1.9-0.5c1,0,1.7,0.2,2.2,0.5C200.3,105.7,200.6,106.2,200.6,106.8z M198.8,108.6
			c-0.3,0.1-0.6,0.3-1,0.3c-0.4,0.1-0.6,0.1-0.6,0.1c-0.3,0.1-0.5,0.2-0.7,0.3c-0.1,0.1-0.2,0.3-0.2,0.6c0,0.3,0.1,0.5,0.3,0.6
			c0.2,0.1,0.4,0.2,0.7,0.2c0.5,0,0.8-0.1,1.1-0.4c0.3-0.3,0.4-0.7,0.4-1.1V108.6z"/>
		<path d="M204,111.1c0,0.3-0.1,0.6-0.2,0.8c-0.2,0.2-0.4,0.3-0.7,0.3c-0.3,0-0.5-0.1-0.7-0.3s-0.2-0.4-0.2-0.8v-5
			c0-0.3,0.1-0.6,0.2-0.8c0.2-0.2,0.4-0.3,0.7-0.3c0.3,0,0.5,0.1,0.6,0.2c0.1,0.1,0.2,0.3,0.2,0.6l0,0.2c0.2-0.4,0.5-0.7,0.9-0.9
			c0.4-0.2,0.8-0.3,1.2-0.3c0.7,0,1.3,0.2,1.7,0.6c0.4,0.4,0.6,1,0.6,1.8v3.8c0,0.3-0.1,0.6-0.2,0.8s-0.4,0.3-0.7,0.3
			c-0.3,0-0.5-0.1-0.7-0.3c-0.2-0.2-0.2-0.4-0.2-0.8v-3.2c0-0.5-0.1-0.8-0.2-1.1c-0.2-0.2-0.4-0.3-0.8-0.3c-0.4,0-0.8,0.1-1,0.4
			s-0.4,0.6-0.4,1.1V111.1z"/>
		<path d="M210.2,106.4h-0.3c-0.2,0-0.4-0.1-0.5-0.2c-0.1-0.1-0.2-0.3-0.2-0.5c0-0.2,0.1-0.4,0.2-0.5c0.1-0.1,0.3-0.2,0.5-0.2h0.3
			v-0.9c0-0.3,0.1-0.6,0.2-0.8c0.1-0.2,0.4-0.3,0.7-0.3c0.3,0,0.5,0.1,0.7,0.3c0.2,0.2,0.2,0.4,0.2,0.8v0.9h0.5
			c0.2,0,0.4,0.1,0.5,0.2c0.1,0.1,0.2,0.3,0.2,0.5c0,0.2-0.1,0.4-0.2,0.5c-0.1,0.1-0.3,0.2-0.5,0.2H212v3.8c0,0.2,0,0.3,0.1,0.3
			c0.1,0.1,0.2,0.1,0.3,0.1c0,0,0.1,0,0.1,0c0.1,0,0.1,0,0.2,0c0.2,0,0.4,0.1,0.5,0.2c0.1,0.1,0.2,0.3,0.2,0.5
			c0,0.3-0.1,0.5-0.3,0.6c-0.2,0.1-0.5,0.2-1,0.2c-0.7,0-1.2-0.1-1.5-0.4c-0.3-0.3-0.4-0.8-0.4-1.6V106.4z"/>
		<path d="M217.4,104.9c1.1,0,1.9,0.3,2.5,1c0.6,0.7,0.9,1.5,0.9,2.7c0,1.1-0.3,2-0.9,2.7c-0.6,0.6-1.5,1-2.5,1
			c-1.1,0-1.9-0.3-2.5-1c-0.6-0.7-0.9-1.5-0.9-2.7c0-1.1,0.3-2,0.9-2.7C215.5,105.2,216.3,104.9,217.4,104.9z M217.4,106.5
			c-0.5,0-0.9,0.2-1.2,0.5c-0.3,0.4-0.4,0.9-0.4,1.6c0,0.7,0.1,1.2,0.4,1.6c0.3,0.4,0.7,0.6,1.2,0.6c0.5,0,0.9-0.2,1.2-0.6
			c0.3-0.4,0.4-0.9,0.4-1.6c0-0.7-0.1-1.2-0.4-1.6C218.3,106.6,217.9,106.5,217.4,106.5z"/>
		<path d="M230.3,103.6c0-0.3,0.1-0.6,0.2-0.8c0.1-0.2,0.4-0.3,0.7-0.3c0.3,0,0.5,0.1,0.7,0.3c0.1,0.2,0.2,0.4,0.2,0.8v7.5
			c0,0.3-0.1,0.6-0.2,0.8c-0.1,0.2-0.4,0.3-0.7,0.3c-0.3,0-0.5-0.1-0.6-0.2c-0.1-0.1-0.2-0.4-0.2-0.6v-0.2c-0.3,0.4-0.6,0.7-0.9,0.9
			c-0.3,0.2-0.7,0.3-1.2,0.3c-0.8,0-1.5-0.3-2-1c-0.5-0.7-0.8-1.5-0.8-2.6c0-1.1,0.3-2,0.8-2.7c0.5-0.7,1.2-1,2-1
			c0.4,0,0.8,0.1,1.2,0.3c0.3,0.2,0.6,0.5,0.9,0.8V103.6z M228.7,106.5c-0.5,0-0.8,0.2-1.1,0.5c-0.3,0.4-0.4,0.9-0.4,1.5
			c0,0.7,0.1,1.2,0.4,1.6c0.3,0.4,0.6,0.5,1.1,0.5c0.5,0,0.9-0.2,1.1-0.5c0.3-0.4,0.4-0.9,0.4-1.6c0-0.6-0.1-1.1-0.4-1.5
			C229.6,106.7,229.2,106.5,228.7,106.5z"/>
		<path d="M236.8,104.9c1.1,0,1.9,0.3,2.5,1c0.6,0.7,0.9,1.5,0.9,2.7c0,1.1-0.3,2-0.9,2.7c-0.6,0.6-1.5,1-2.5,1
			c-1.1,0-1.9-0.3-2.5-1c-0.6-0.7-0.9-1.5-0.9-2.7c0-1.1,0.3-2,0.9-2.7C234.9,105.2,235.7,104.9,236.8,104.9z M236.8,106.5
			c-0.5,0-0.9,0.2-1.2,0.5c-0.3,0.4-0.4,0.9-0.4,1.6c0,0.7,0.1,1.2,0.4,1.6c0.3,0.4,0.7,0.6,1.2,0.6c0.5,0,0.9-0.2,1.2-0.6
			c0.3-0.4,0.4-0.9,0.4-1.6c0-0.7-0.1-1.2-0.4-1.6C237.7,106.6,237.3,106.5,236.8,106.5z"/>
		<path d="M247.3,111.1c0,0.3-0.1,0.6-0.2,0.8c-0.2,0.2-0.4,0.3-0.7,0.3c-0.3,0-0.6-0.1-0.7-0.3c-0.2-0.2-0.2-0.4-0.2-0.8v-6.9
			c0-0.6,0.1-1,0.3-1.2c0.2-0.2,0.5-0.3,0.9-0.3h3c1,0,1.7,0.3,2.2,0.8c0.5,0.5,0.8,1.2,0.8,2.2c0,1-0.2,1.7-0.7,2.2
			c-0.5,0.5-1.2,0.8-2.1,0.8h-2.3V111.1z M247.3,104.3v2.7h1.8c0.5,0,0.9-0.1,1.1-0.3c0.2-0.2,0.3-0.6,0.3-1c0-0.4-0.1-0.8-0.3-1
			c-0.2-0.2-0.6-0.3-1-0.3H247.3z"/>
		<path d="M253.8,103.6c0-0.3,0.1-0.5,0.3-0.7c0.2-0.2,0.4-0.3,0.7-0.3c0.3,0,0.5,0.1,0.7,0.3c0.2,0.2,0.3,0.4,0.3,0.7
			c0,0.3-0.1,0.5-0.3,0.7c-0.2,0.2-0.4,0.3-0.7,0.3c-0.3,0-0.5-0.1-0.7-0.3C253.9,104.1,253.8,103.8,253.8,103.6z M255.7,111.1
			c0,0.3-0.1,0.6-0.2,0.8s-0.4,0.3-0.7,0.3c-0.3,0-0.5-0.1-0.7-0.3s-0.2-0.4-0.2-0.8v-5c0-0.3,0.1-0.6,0.2-0.8
			c0.2-0.2,0.4-0.3,0.7-0.3c0.3,0,0.5,0.1,0.7,0.3c0.2,0.2,0.2,0.4,0.2,0.8V111.1z"/>
		<path d="M259.1,111.1c0,0.3-0.1,0.6-0.2,0.8s-0.4,0.3-0.7,0.3c-0.3,0-0.5-0.1-0.7-0.3s-0.2-0.4-0.2-0.8v-5c0-0.3,0.1-0.6,0.2-0.8
			c0.2-0.2,0.4-0.3,0.7-0.3c0.3,0,0.5,0.1,0.6,0.2c0.1,0.1,0.2,0.3,0.2,0.6l0,0.2c0.2-0.4,0.5-0.7,0.9-0.9c0.4-0.2,0.8-0.3,1.2-0.3
			c0.7,0,1.3,0.2,1.7,0.6c0.4,0.4,0.6,1,0.6,1.8v3.8c0,0.3-0.1,0.6-0.2,0.8c-0.2,0.2-0.4,0.3-0.7,0.3c-0.3,0-0.5-0.1-0.7-0.3
			s-0.2-0.4-0.2-0.8v-3.2c0-0.5-0.1-0.8-0.2-1.1c-0.2-0.2-0.4-0.3-0.8-0.3c-0.4,0-0.8,0.1-1,0.4s-0.4,0.6-0.4,1.1V111.1z"/>
		<path d="M266.8,111.1c0,0.3-0.1,0.6-0.2,0.8s-0.4,0.3-0.7,0.3c-0.3,0-0.5-0.1-0.7-0.3c-0.1-0.2-0.2-0.4-0.2-0.8v-7.5
			c0-0.3,0.1-0.6,0.2-0.8c0.1-0.2,0.4-0.3,0.7-0.3c0.3,0,0.5,0.1,0.7,0.3c0.2,0.2,0.2,0.4,0.2,0.8v2.3c0.3-0.3,0.6-0.5,0.9-0.7
			c0.3-0.2,0.7-0.2,1.1-0.2c0.4,0,0.8,0.1,1.1,0.2c0.3,0.1,0.6,0.3,0.8,0.6c0.1,0.2,0.2,0.4,0.3,0.6c0.1,0.2,0.1,0.6,0.1,1.1v0.1
			v3.5c0,0.3-0.1,0.6-0.2,0.8c-0.1,0.2-0.4,0.3-0.7,0.3c-0.3,0-0.5-0.1-0.7-0.3c-0.2-0.2-0.2-0.4-0.2-0.8v-2.7
			c0-0.8-0.1-1.4-0.2-1.6c-0.2-0.2-0.4-0.3-0.8-0.3c-0.4,0-0.8,0.1-1,0.4c-0.3,0.3-0.4,0.6-0.4,1.1V111.1z"/>
		<path d="M278.4,106.8v3.9c0,0.1,0,0.3,0,0.5c0,0.2,0,0.3,0,0.3c0,0.2-0.1,0.4-0.2,0.5c-0.1,0.1-0.3,0.2-0.6,0.2
			c-0.3,0-0.6-0.1-0.8-0.3c-0.2-0.2-0.2-0.5-0.2-0.8c-0.2,0.4-0.5,0.6-0.9,0.8c-0.4,0.2-0.8,0.3-1.3,0.3c-0.7,0-1.2-0.2-1.5-0.6
			c-0.4-0.4-0.5-0.9-0.5-1.6c0-0.6,0.2-1.1,0.5-1.4c0.3-0.3,0.8-0.6,1.6-0.7c0.3-0.1,0.6-0.1,1.1-0.2c0.4-0.1,0.7-0.1,0.8-0.1
			c0.1,0,0.2-0.1,0.2-0.2c0-0.1,0.1-0.2,0.1-0.3c0-0.3-0.1-0.5-0.3-0.6c-0.2-0.1-0.5-0.2-0.9-0.2c-0.2,0-0.4,0-0.6,0.1
			s-0.3,0.1-0.5,0.3c0,0-0.1,0.1-0.2,0.2c-0.3,0.3-0.6,0.5-0.8,0.5c-0.2,0-0.4-0.1-0.5-0.2c-0.1-0.1-0.2-0.3-0.2-0.5
			c0-0.5,0.3-0.9,0.8-1.2c0.5-0.3,1.2-0.5,1.9-0.5c1,0,1.7,0.2,2.2,0.5C278.1,105.7,278.4,106.2,278.4,106.8z M276.6,108.6
			c-0.3,0.1-0.6,0.3-1,0.3c-0.4,0.1-0.6,0.1-0.6,0.1c-0.3,0.1-0.5,0.2-0.7,0.3c-0.1,0.1-0.2,0.3-0.2,0.6c0,0.3,0.1,0.5,0.3,0.6
			c0.2,0.1,0.4,0.2,0.7,0.2c0.5,0,0.8-0.1,1.1-0.4c0.3-0.3,0.4-0.7,0.4-1.1V108.6z"/>
		<path d="M280,103.6c0-0.3,0.1-0.6,0.2-0.8c0.2-0.2,0.4-0.3,0.7-0.3c0.3,0,0.5,0.1,0.7,0.3c0.2,0.2,0.2,0.4,0.2,0.8v7.5
			c0,0.3-0.1,0.6-0.2,0.8c-0.2,0.2-0.4,0.3-0.7,0.3c-0.3,0-0.5-0.1-0.7-0.3c-0.2-0.2-0.2-0.4-0.2-0.8V103.6z"/>
		<path d="M289.4,107.7c0.3,0,0.5,0.1,0.7,0.2c0.2,0.1,0.2,0.4,0.2,0.6s-0.1,0.5-0.2,0.6c-0.2,0.1-0.4,0.2-0.7,0.2h-1.7
			c-0.3,0-0.5-0.1-0.7-0.2c-0.2-0.1-0.2-0.4-0.2-0.6c0-0.3,0.1-0.5,0.2-0.6c0.2-0.1,0.4-0.2,0.7-0.2H289.4z"/>
		<path d="M301.9,104.6c0,0.3-0.1,0.5-0.2,0.6c-0.2,0.2-0.4,0.2-0.6,0.2c-0.3,0-0.7-0.2-1-0.6c-0.1-0.1-0.1-0.2-0.2-0.2
			c-0.2-0.2-0.4-0.3-0.6-0.4c-0.3-0.1-0.5-0.1-0.9-0.1c-0.5,0-0.9,0.1-1.2,0.3c-0.3,0.2-0.4,0.5-0.4,0.8c0,0.5,0.5,0.9,1.6,1.1
			c0.3,0.1,0.5,0.1,0.6,0.1c0.7,0.2,1.1,0.3,1.5,0.4c0.3,0.1,0.6,0.2,0.8,0.3c0.4,0.2,0.7,0.5,0.9,0.9c0.2,0.3,0.3,0.8,0.3,1.3
			c0,0.9-0.3,1.6-1,2.2c-0.6,0.5-1.5,0.8-2.7,0.8c-0.6,0-1.1-0.1-1.6-0.2c-0.4-0.1-0.9-0.3-1.3-0.6c-0.3-0.2-0.5-0.4-0.7-0.7
			c-0.2-0.3-0.2-0.6-0.2-0.8c0-0.3,0.1-0.5,0.2-0.7c0.2-0.2,0.4-0.3,0.6-0.3c0.3,0,0.6,0.2,0.9,0.7c0.1,0.2,0.2,0.3,0.3,0.4
			c0.2,0.2,0.4,0.4,0.7,0.5c0.3,0.1,0.6,0.2,1,0.2c0.6,0,1-0.1,1.3-0.3c0.3-0.2,0.5-0.5,0.5-0.9c0-0.6-0.8-1-2.3-1.4
			c-0.1,0-0.1,0-0.1,0c-1.2-0.3-2-0.6-2.4-1c-0.4-0.4-0.6-1-0.6-1.8c0-0.9,0.3-1.6,0.9-2c0.6-0.5,1.5-0.7,2.6-0.7
			c0.5,0,1,0.1,1.4,0.2c0.4,0.1,0.8,0.3,1.1,0.5c0.3,0.2,0.5,0.4,0.6,0.7C301.9,104.1,301.9,104.4,301.9,104.6z"/>
		<path d="M305.8,111.1c0,0.3-0.1,0.6-0.2,0.8c-0.2,0.2-0.4,0.3-0.7,0.3c-0.3,0-0.6-0.1-0.7-0.3c-0.2-0.2-0.2-0.4-0.2-0.8v-6.9
			c0-0.6,0.1-1,0.3-1.2c0.2-0.2,0.5-0.3,0.9-0.3h3c1,0,1.7,0.3,2.2,0.8c0.5,0.5,0.8,1.2,0.8,2.2c0,1-0.2,1.7-0.7,2.2
			c-0.5,0.5-1.2,0.8-2.1,0.8h-2.3V111.1z M305.8,104.3v2.7h1.8c0.5,0,0.9-0.1,1.1-0.3c0.2-0.2,0.3-0.6,0.3-1c0-0.4-0.1-0.8-0.3-1
			c-0.2-0.2-0.6-0.3-1-0.3H305.8z"/>
	</g>
</g>
</svg>
